<svg xmlns="http://www.w3.org/2000/svg" xmlns:xlink="http://www.w3.org/1999/xlink" width="407pt" height="257pt" viewBox="0.00 0.00 407.46 256.82">
<g id="graph0" class="graph" transform="scale(1 1) rotate(0) translate(4 252.82)">
<title>OpenFGAModel</title>
<polygon fill="white" stroke="none" points="-4,4 -4,-252.82 403.46,-252.82 403.46,4 -4,4"/>
<text text-anchor="middle" x="199.73" y="-8.8" font-family="Times,serif" font-size="16.00">OpenFGA Model: User, Group, Doc Permissions</text>
<!-- user -->
<g id="node1" class="node">
<title>user</title>
<path fill="lightblue" stroke="black" d="M58.91,-27.7C58.91,-27.7 101.83,-27.7 101.83,-27.7 107.83,-27.7 113.83,-33.7 113.83,-39.7 113.83,-39.7 113.83,-51.7 113.83,-51.7 113.83,-57.7 107.83,-63.7 101.83,-63.7 101.83,-63.7 58.91,-63.7 58.91,-63.7 52.91,-63.7 46.91,-57.7 46.91,-51.7 46.91,-51.7 46.91,-39.7 46.91,-39.7 46.91,-33.7 52.91,-27.7 58.91,-27.7"/>
<text text-anchor="middle" x="80.37" y="-41.6" font-family="Times,serif" font-size="14.00">type user</text>
</g>
<!-- group -->
<g id="node2" class="node">
<title>group</title>
<path fill="lightblue" stroke="black" d="M18.44,-206.72C18.44,-206.72 142.3,-206.72 142.3,-206.72 148.3,-206.72 154.3,-212.72 154.3,-218.72 154.3,-218.72 154.3,-236.32 154.3,-236.32 154.3,-242.32 148.3,-248.32 142.3,-248.32 142.3,-248.32 18.44,-248.32 18.44,-248.32 12.44,-248.32 6.44,-242.32 6.44,-236.32 6.44,-236.32 6.44,-218.72 6.44,-218.72 6.44,-212.72 12.44,-206.72 18.44,-206.72"/>
<text text-anchor="middle" x="44.57" y="-223.32" font-family="Times,serif" font-size="14.00">type group</text>
<polyline fill="none" stroke="black" points="82.7,-206.72 82.7,-248.32"/>
<text text-anchor="start" x="90.7" y="-231.72" font-family="Times,serif" font-size="14.00">relations: </text>
<text text-anchor="middle" x="118.5" y="-214.92" font-family="Times,serif" font-size="14.00"> member</text>
</g>
<!-- group&#45;&gt;user -->
<g id="edge1" class="edge">
<title>group-&gt;user</title>
<path fill="none" stroke="black" d="M84.89,-206.31C87.64,-173.99 87.85,-112.3 85.52,-75.5"/>
<polygon fill="black" stroke="black" points="89.01,-75.26 84.75,-65.56 82.04,-75.8 89.01,-75.26"/>
<text text-anchor="middle" x="51.33" y="-143.91" font-family="Times,serif" font-size="10.00">member is [user]</text>
</g>
<!-- group&#45;&gt;user -->
<g id="edge2" class="edge">
<title>group-&gt;user</title>
<path fill="none" stroke="black" stroke-dasharray="5,2" d="M75.85,-206.31C73.11,-173.99 72.9,-112.3 75.22,-75.5"/>
<polygon fill="black" stroke="black" points="78.71,-75.8 75.99,-65.56 71.73,-75.26 78.71,-75.8"/>
<text text-anchor="middle" x="37.77" y="-131.91" font-family="Times,serif" font-size="10.00">member is [user:*]</text>
</g>
<!-- group&#45;&gt;group -->
<g id="edge3" class="edge">
<title>group-&gt;group</title>
<path fill="none" stroke="blue" d="M154.67,-233.58C165.22,-232.6 172.3,-230.58 172.3,-227.52 172.3,-225.76 169.94,-224.34 165.9,-223.26"/>
<polygon fill="blue" stroke="blue" points="166.6,-219.83 156.17,-221.71 165.49,-226.74 166.6,-219.83"/>
<text text-anchor="middle" x="228.4" y="-230.52" font-family="Times,serif" font-size="10.00" fill="blue">member is [group#member]</text>
<text text-anchor="middle" x="228.4" y="-218.52" font-family="Times,serif" font-size="10.00" fill="blue">(nested membership)</text>
</g>
<!-- doc -->
<g id="node3" class="node">
<title>doc</title>
<path fill="lightblue" stroke="black" d="M181.17,-107.41C181.17,-107.41 294.5,-107.41 294.5,-107.41 300.5,-107.41 306.5,-113.41 306.5,-119.41 306.5,-119.41 306.5,-153.81 306.5,-153.81 306.5,-159.81 300.5,-165.81 294.5,-165.81 294.5,-165.81 181.17,-165.81 181.17,-165.81 175.17,-165.81 169.17,-159.81 169.17,-153.81 169.17,-153.81 169.17,-119.41 169.17,-119.41 169.17,-113.41 175.17,-107.41 181.17,-107.41"/>
<text text-anchor="middle" x="201.08" y="-132.41" font-family="Times,serif" font-size="14.00">type doc</text>
<polyline fill="none" stroke="black" points="232.99,-107.41 232.99,-165.81"/>
<text text-anchor="start" x="240.99" y="-149.21" font-family="Times,serif" font-size="14.00">relations: </text>
<text text-anchor="start" x="240.99" y="-132.41" font-family="Times,serif" font-size="14.00"> can_read </text>
<text text-anchor="middle" x="269.74" y="-115.61" font-family="Times,serif" font-size="14.00"> viewer</text>
</g>
<!-- doc&#45;&gt;user -->
<g id="edge5" class="edge">
<title>doc-&gt;user</title>
<path fill="none" stroke="black" d="M198.67,-107C176.04,-92.86 147.55,-76.43 124.19,-64.07"/>
<polygon fill="black" stroke="black" points="126.02,-61.08 115.53,-59.57 122.79,-67.29 126.02,-61.08"/>
<text text-anchor="middle" x="130.33" y="-76.54" font-family="Times,serif" font-size="10.00">viewer is [user]</text>
</g>
<!-- doc&#45;&gt;user -->
<g id="edge6" class="edge">
<title>doc-&gt;user</title>
<path fill="none" stroke="black" stroke-dasharray="5,2" d="M173.2,-106.92C151.89,-95.04 129.16,-81.55 111.51,-70.22"/>
<polygon fill="black" stroke="black" points="113.82,-67.55 103.54,-65 109.98,-73.41 113.82,-67.55"/>
<text text-anchor="middle" x="107.37" y="-91.57" font-family="Times,serif" font-size="10.00">viewer is [user:*]</text>
</g>
<!-- doc&#45;&gt;group -->
<g id="edge7" class="edge">
<title>doc-&gt;group</title>
<path fill="none" stroke="darkgreen" d="M173.2,-166.3C153.54,-177.26 132.68,-189.59 115.71,-200.33"/>
<polygon fill="darkgreen" stroke="darkgreen" points="113.99,-197.27 107.47,-205.63 117.78,-203.16 113.99,-197.27"/>
<text text-anchor="middle" x="91.14" y="-174.32" font-family="Times,serif" font-size="10.00" fill="darkgreen">viewer is [group#member]</text>
<text text-anchor="middle" x="91.14" y="-162.32" font-family="Times,serif" font-size="10.00" fill="darkgreen">(members of group)</text>
</g>
<!-- doc&#45;&gt;group -->
<g id="edge8" class="edge">
<title>doc-&gt;group</title>
<path fill="none" stroke="orange" d="M198.67,-166.22C180.8,-177.39 159.28,-189.99 139.51,-200.88"/>
<polygon fill="orange" stroke="orange" points="138.11,-197.66 130.99,-205.51 141.45,-203.8 138.11,-197.66"/>
<text text-anchor="middle" x="220.46" y="-198.55" font-family="Times,serif" font-size="10.00" fill="orange">viewer is [group]</text>
<text text-anchor="middle" x="220.46" y="-186.55" font-family="Times,serif" font-size="10.00" fill="orange">(direct group assignment)</text>
</g>
<!-- doc&#45;&gt;doc -->
<g id="edge4" class="edge">
<title>doc:e-&gt;doc:e</title>
<path fill="none" stroke="purple" d="M306.5,-136.61C312.5,-145.61 324.5,-145.61 324.5,-136.61 324.5,-131.27 320.27,-129.1 315.58,-130.1"/>
<polygon fill="purple" stroke="purple" points="313.82,-127.06 307.73,-135.73 317.9,-132.74 313.82,-127.06"/>
<text text-anchor="middle" x="361.98" y="-139.61" font-family="Times,serif" font-size="10.00" fill="purple">can_read is viewer</text>
<text text-anchor="middle" x="361.98" y="-127.61" font-family="Times,serif" font-size="10.00" fill="purple">(delegation)</text>
</g>
</g>
</svg>
